<?xml version="1.0" encoding="utf-8"?>
<!-- Generator: Adobe Illustrator 25.4.1, SVG Export Plug-In . SVG Version: 6.00 Build 0)  -->
<svg version="1.1" id="Layer_1" xmlns="http://www.w3.org/2000/svg" xmlns:xlink="http://www.w3.org/1999/xlink" x="0px" y="0px"
	 viewBox="0 0 653 207.2" style="enable-background:new 0 0 653 207.2;" xml:space="preserve">
<style type="text/css">
	.st0{fill:#FFFFFF;}
	.st1{fill:#C8102E;}
	.st2{fill:#1D428A;}
	.st3{enable-background:new    ;}
	.st4{fill:#A06B15;}
</style>
<g>
	<g>
		<path class="st0" d="M21.5,0h49C82.4,0,92,9.5,92,21.3v164.5c0,11.8-9.6,21.3-21.5,21.3h-49C9.6,207.2,0,197.6,0,185.8V21.3
			C0,9.5,9.6,0,21.5,0z"/>
		<g>
			<path class="st1" d="M60.5,5.9c-3,0-5.2,0-5.3,0h-0.3l0.7,0.3c0.9,0.4,2,1,2.6,1.5C58.3,8,58.7,8.5,59,8.9
				c0.3,0.5,0.5,0.7,0.7,0.8c0.7,0.3,1.3,0.8,1.8,1.9c0.4,0.8,0.5,1.6,0.5,2.9c0,1.8-0.4,3.5-1.4,5.6l-0.5,1l0.3,0.4
				c0.7,0.8,0.6,1.5-0.7,3.5c-0.3,0.5-0.6,1-0.7,1.3c-0.3,0.7-0.6,1-1.2,1.1l-0.5,0.2l-0.6,1.2c-1.5,2.8-2.6,4.3-3.5,4.7
				c-0.2,0.1-0.4,0.2-0.4,0.3c-0.2,0.2-0.3,0.8-0.3,1.2c0,0.8,0.1,0.9,1.6,1.6c1.6,0.8,2.8,1.5,3.6,2.1c0.5,0.4,0.5,0.4,0.5,0.8
				c0,0.3,0,0.4,0.2,0.5c0.7,0.4,1.3,0.8,1.8,1.2c0.3,0.2,1.1,0.8,1.8,1.2c1.5,1,2.3,1.6,3.2,2.6c2.9,3,4.5,7.4,4.9,13.6
				c0,0.7,0.1,2.3,0.1,3.6v2.4l0.3,1.2c0.3,1.2,0.6,2.9,1.1,5.7c0.3,1.9,0.6,3.4,0.9,4.2c0.1,0.3,0.6,1.5,1.2,2.7
				c1.3,2.7,1.8,3.8,2.3,5.3c0.4,1.3,0.8,2.8,0.9,4c0.3,3,0.8,5.5,1.2,5.9c0.1,0.1,0.5,0.2,1.1,0.4c0.5,0.1,1.2,0.4,1.5,0.5
				c0.5,0.2,0.6,0.3,0.8,0.8l0.3,0.6l1,0.5c0.5,0.3,1.1,0.6,1.2,0.7c0.3,0.3,0.6,0.8,0.6,1.2c0,0.2,0.2,0.6,0.3,0.8
				c0.6,0.9,1.5,2.5,1.5,2.9c0,0.1,0-18.1,0-40.3c0-44.4,0.1-41.3-0.5-43.4c-0.5-1.8-1.2-3.5-2.3-5.1C81,9.4,77.1,6.9,72.4,6.1
				c-0.8-0.1-1.7-0.2-9.1-0.2C62.6,5.9,61.5,5.9,60.5,5.9L60.5,5.9z M59.2,60.9c-0.4,0-3.5,1.9-5.3,3.2c-0.7,0.5-0.8,0.6-1.1,1.2
				c-0.4,0.9-2.1,5-3.8,9.6L48.2,77v1c0,0.9,0,1,0.1,1c0.2,0,1,0.5,1.4,0.9c0.9,0.8,1.4,1.9,2.1,4.2c0.6,1.8,1.9,6.5,3,10.5l1.1,4.1
				l0.4,1.3l-0.5,0.5l-0.5,0.5l0.2,0.7c0.1,0.4,0.3,1.1,0.5,1.6c1.6,5.9,2.4,10.2,3.1,17.8c0.4,3.6,0.6,4.9,1.5,6.9
				c0.8,2,1.7,3.7,2.8,5.6c1.6,2.6,2.5,4.5,3,6.3c0.5,1.7,1.1,5,1.9,9.6c1,6,1.3,8,1.5,8.5c0.1,0.5,0.3,0.8,1,1.7
				c1.2,1.6,1.5,2,2,3.1c1,1.8,1.2,2.9,0.9,4.2c-0.1,0.4-0.3,1.4-0.5,2.2c-0.9,3.8-1.1,5.5-0.7,7.3c0,0.2,0.2,1.4,0.4,2.5
				c0.4,2.4,0.6,3.4,1,3.9c0.3,0.4,0.6,1.3,0.6,1.8c0,0.2-0.1,0.5-0.2,0.7s-0.2,0.4-0.2,0.5s0.4,1.3,0.9,2.7s1,3,1.1,3.4
				c1,3.4,0.9,6.2-0.1,8.2c-0.7,1.4-1.5,2.3-3.1,3.3c-0.1,0.1-0.1,0.1,0.3,0.1c0.6-0.1,1.6-0.3,2.6-0.7c2.4-0.8,4.8-2.4,6.7-4.4
				c2.3-2.5,3.9-5.9,4.2-9.3c0.1-0.6,0.1-12.7,0.1-38.6v-37.7l-0.3,0.6c-0.4,0.8-1.2,2.2-1.7,2.8c-1.4,1.8-3.3,3.3-5.3,4.3
				c-4.9,2.3-10.5,1.8-14.9-1.3c-1.1-0.7-2.7-2.3-3.4-3.4c-3.1-4.3-3.6-9.9-1.4-14.7c1.7-3.6,5-6.6,8.7-7.7c0.5-0.2,0.9-0.3,1-0.4
				s-0.1-0.6-1.3-3.1c-0.9-2-2.1-4.5-4.1-8.5c-1.1-2.2-1.2-2.6-1.9-5.5c-0.6-2.7-1.6-7.9-2.5-13C59.4,60.8,59.4,60.9,59.2,60.9
				L59.2,60.9z"/>
			<path class="st2" d="M35.1,5.9c-7,0-14.2,0-14.8,0.1c-3.9,0.4-7.3,1.9-10.1,4.6C7.5,13.2,6,16.1,5.3,20
				c-0.1,0.8-0.1,6.1-0.2,83.7c0,56.3,0,83.4,0.1,84.5C5.4,192.5,7,196,10,199c2.9,2.9,6.5,4.5,10.4,4.8c1.2,0.1,49.8,0.1,49.8,0
				c0,0-0.2-0.2-0.5-0.4c-1.1-0.7-2-1.9-2.3-3.1c-0.4-1.5-0.4-3.1,0.1-6.9c0.4-3.3,0.6-5.9,0.7-7.5l0.1-1.6l-0.5-0.5
				c-1-1.1-1.2-1.9-0.7-2.9c0.1-0.3,0.2-0.6,0.2-0.7c0-0.3-0.5-1.8-0.9-2.9c-0.5-1.2-1.3-2.7-2.4-4.8c-1.7-2.9-2-3.7-2-4.7
				c0-0.6,0.1-0.9,0.5-1.4l0.3-0.3l-0.2-0.7c-0.3-1-0.7-1.8-1.4-3.4l-0.6-1.3l-0.8-0.5c-3.2-1.9-7-4.8-10.8-8.2
				c-1.1-1-3.1-2.9-4.8-4.6c-1-1-2.6-2.5-3.5-3.3c-1.6-1.4-2.2-2-2.5-2.6c-0.1-0.1-0.4-0.5-0.6-0.8c-3.5-4-11.4-15.7-14.1-20.8
				c-0.3-0.6-0.5-1-0.6-1.1c0,0-0.9-0.2-2.1-0.3c-1.1-0.2-2.1-0.3-2.1-0.4c0,0-0.2-0.6-0.4-1.1c-0.7-2.3-1.6-4.3-4.1-9
				c-3.6-6.8-4.5-10.2-4-14.7c0.3-2.9,1.3-7.4,1.8-8.4c0.3-0.6,1-1.4,2-2.5l1-0.9v-1.1v-1.1h-2.3c-3.1,0-4-0.1-4.6-0.7
				c-0.4-0.3-0.5-0.5-0.8-2C7.2,76.2,7,75.5,6.8,75c-0.7-1.7-0.7-2.3-0.2-3.8C6.8,70.7,7,70,7,69.7c0.7-2.7,2.5-6.9,5.9-13.8
				c0.6-1.2,1.2-2.5,1.3-3c1-3,2-5.4,3-7.4c2.3-4.4,4-7,5.8-8.8c0.9-0.9,1.6-1.4,2.7-1.9c1.4-0.7,2.5-0.9,6-1.2l2.3-0.2l0.3-0.3
				l0.3-0.3l1.1-0.1c3.7-0.2,5.1-0.6,5.7-2c0.3-0.7,0.5-1.4,0.8-4.1c0.2-1.4,0.3-2.5,0.3-2.6s0-0.1-0.1-0.1
				c-0.8,0.1-1.5-1.6-1.5-3.9c0-1.9,0.3-2.3,1.5-2.4l0.7-0.1v-0.7c0-1.4,0.2-3.5,0.4-4.4c0.4-2.2,0.9-3.2,2-4.4
				c0.8-0.8,1.7-1.4,3-1.9c0.5,0,0.7-0.1,0.6-0.2C49.1,5.9,42.1,5.9,35.1,5.9L35.1,5.9z M15.5,163.6h2.8h2.8l0.1,0.8
				c0.1,0.4,0.3,1.9,0.6,3.2s0.6,3.3,0.8,4.3c0.2,1,0.7,3.8,1.1,6.2s1,5.4,1.2,6.8c0.2,1.4,0.5,2.5,0.5,2.5s-0.1-2.3-0.3-4.9
				c-0.1-0.9-0.1-1.9-0.2-3c0-0.5-0.1-1.2-0.1-1.5s-0.1-1.2-0.1-2.1s-0.1-1.8-0.1-2s-0.1-2.6-0.1-5.3l-0.1-4.9h1.8H28v15v15h-2.5H23
				l-0.4-2.3c-0.2-1.3-0.7-3.8-1.1-5.7c-0.3-1.9-0.9-4.8-1.2-6.5c-0.8-4.5-1.2-6.7-1.5-7.9l-0.2-1v0.8c0,0.5,0.1,2,0.1,3.4
				s0.1,3,0.1,3.6c0,0.7,0.1,13.7,0,15.5c0,0.1-0.1,0.2-1.7,0.2h-1.7v-15L15.5,163.6L15.5,163.6z M30.9,163.6h3.2
				c1.8,0,3.4,0,3.8,0.1c1.9,0.3,3.2,1.3,3.8,3c0.4,1.1,0.5,1.7,0.4,5.6c0,3-0.1,3.6-0.2,4c-0.2,0.9-0.6,1.4-1.1,2l-0.5,0.5l0.5,0.5
				c0.6,0.6,0.9,1.1,1.1,1.9c0.2,0.6,0.2,0.7,0.2,4.3c0,4.1,0,4.1-0.6,5.4c-0.6,1.2-1.6,2-3,2.4c-0.4,0.1-1,0.2-4,0.2H31v-15
				L30.9,163.6L30.9,163.6z M46.9,163.6h2.9h2.9l0.1,0.3c0,0.2,0.3,2.2,0.5,4.5c0.3,2.3,0.8,7,1.2,10.4c1.5,13.3,1.7,14.5,1.7,14.6
				c0,0-0.9,0.1-2.1,0.1H52v-0.3c0-0.2-0.1-1.3-0.2-2.5c-0.1-1.2-0.2-2.5-0.2-2.8l-0.1-0.5h-1.8c-1.8,0-1.8,0-1.8,0.2
				c0,0.1-0.1,1.2-0.2,2.5s-0.2,2.6-0.2,2.8l-0.1,0.5h-2h-2v-0.3c0-0.2,0.6-5.2,1.2-9.9c0.1-0.6,0.6-4.8,1.1-9.4
				c1.1-9.5,1.2-9.7,1.2-10.1V163.6L46.9,163.6z M49.5,167L49.5,167c-0.1,0.1-0.1,0.4-0.1,0.8c0,0.4-0.1,1-0.1,1.3s-0.2,2.1-0.3,4
				s-0.4,5.1-0.6,7s-0.3,3.6-0.3,3.7c0,0.1,0.4,0.1,1.5,0.1c0.8,0,1.5,0,1.5-0.1c0,0-0.1-1.4-0.2-2.9C49.8,168.3,49.7,167,49.5,167
				L49.5,167z M34.9,167.4v4.9c0,2.7,0,4.9,0,4.9s0.5,0,1.1,0c1.2,0,1.5-0.1,1.8-0.6l0.2-0.3v-3.9c0-3.8,0-4-0.2-4.2
				c-0.3-0.6-0.5-0.7-1.8-0.7L34.9,167.4L34.9,167.4z M34.9,180.5v4.6v4.6h1c1.2,0,1.7-0.2,2-0.7c0.2-0.3,0.2-0.5,0.2-3.9
				s0-3.6-0.2-3.9c-0.3-0.5-0.7-0.6-1.9-0.7L34.9,180.5L34.9,180.5z"/>
		</g>
	</g>
</g>
<g class="st3">
	<path class="st4" d="M131.5,39.2H143l12,36.6l14.7-36.6h8.7l15,36.6l11.9-36.6h11.5L194.5,101h-1.4l-19.1-46.4L155.2,101h-1.4
		L131.5,39.2z"/>
	<path class="st4" d="M225.7,39.2h10.6v60.2h-10.6V39.2z"/>
	<path class="st4" d="M250,39.2h12.1L291,81.5V39.2h10.1v60.2h-10.2l-30.8-46v46H250V39.2z"/>
	<path class="st4" d="M355.1,82.5c0,9.9-7.5,18.2-21,18.2c-9.5,0-16.7-2.8-21.2-5.2V85c5.1,3.1,13.7,6,21.2,6c7.1,0,10-3.6,10-8.2
		c0-3.5-2.5-6.8-7.7-7.9l-8.5-1.9c-9-2-15.4-6.9-15.4-17.2c0-9.9,7.8-17.9,22.1-17.9c7,0,12.6,1.7,17.1,3.6v10.5
		c-5.4-2.7-11.6-4.5-17.3-4.5c-6.9,0-11.1,3.1-11.1,7.9c0,3.8,2.2,6.3,6.5,7.2l9.4,2.1C349.6,67,355.1,73.1,355.1,82.5z"/>
	<path class="st4" d="M389.7,39.2h22.9c11.8,0,19.7,8.7,19.7,19.5c0,10.8-7.9,19.4-19.7,19.4h-12.5v21.2h-10.4V39.2z M410.6,68.9
		c6.5,0,10.7-4.1,10.7-10.1c0-6.1-4.1-10.2-10.7-10.2h-10.5v20.4H410.6z"/>
	<path class="st4" d="M438,69.3c0-20.6,15.4-31.4,31.1-31.4c15.7,0,31,10.7,31,31.4c0,20.6-15.3,31.4-31,31.4
		C453.4,100.7,438,90,438,69.3z M489.2,69.3c0-13.6-9.5-21.2-20-21.2c-10.7,0-20,7.7-20,21.2c0,13.7,9.4,21.2,20,21.2
		C479.7,90.6,489.2,83,489.2,69.3z"/>
	<path class="st4" d="M507,69.3c0-20.6,15.4-31.4,31.1-31.4c15.7,0,31,10.7,31,31.4c0,20.6-15.3,31.4-31,31.4
		C522.4,100.7,507,90,507,69.3z M558.2,69.3c0-13.6-9.5-21.2-20-21.2c-10.7,0-20,7.7-20,21.2c0,13.7,9.4,21.2,20,21.2
		C548.8,90.6,558.2,83,558.2,69.3z"/>
	<path class="st4" d="M579.5,39.2h10.4v50.1h28.3v10.1h-38.7V39.2z"/>
</g>
<g>
	<g class="st3">
		<path class="st4" d="M150.3,158.1l6.6-5.1c3.6-2.8,5.6-5.5,5.6-8.6c0-3.9-3.3-6.6-8.8-6.6c-4.9,0-8.9,1.7-12.2,3.9v-6.2
			c2.8-1.4,6.3-3.2,12.2-3.2c9.3,0,14.8,5.3,14.8,12c0,5.3-3.3,9.2-7.7,12.4l-7.8,5.8c-2.6,1.9-5.5,5-5.5,8.5h21.2v5.6h-27.8
			C140.9,167.3,143.8,163.1,150.3,158.1z"/>
		<path class="st4" d="M209,155c0,13-4.4,22.6-15.9,22.6c-11.5,0-15.9-9.7-15.9-22.6c0-13,4.4-22.6,15.9-22.6
			C204.6,132.4,209,142,209,155z M203,155c0-9.4-2-17.3-10-17.3c-8,0-10,7.9-10,17.3c0,9.4,2,17.3,10,17.3
			C201,172.3,203,164.4,203,155z"/>
		<path class="st4" d="M226.5,158.1l6.6-5.1c3.6-2.8,5.6-5.5,5.6-8.6c0-3.9-3.3-6.6-8.8-6.6c-4.9,0-8.9,1.7-12.2,3.9v-6.2
			c2.8-1.4,6.3-3.2,12.2-3.2c9.3,0,14.8,5.3,14.8,12c0,5.3-3.3,9.2-7.7,12.4l-7.8,5.8c-2.6,1.9-5.5,5-5.5,8.5h21.2v5.6H217
			C217,167.3,219.9,163.1,226.5,158.1z"/>
		<path class="st4" d="M285.1,155c0,13-4.4,22.6-15.9,22.6c-11.5,0-15.9-9.7-15.9-22.6c0-13,4.4-22.6,15.9-22.6
			C280.7,132.4,285.1,142,285.1,155z M279.2,155c0-9.4-2-17.3-10-17.3c-8,0-10,7.9-10,17.3c0,9.4,2,17.3,10,17.3
			C277.2,172.3,279.2,164.4,279.2,155z"/>
		<path class="st4" d="M292.9,156.4h17.4v5.1h-17.4V156.4z"/>
		<path class="st4" d="M327.5,158.1l6.6-5.1c3.6-2.8,5.6-5.5,5.6-8.6c0-3.9-3.3-6.6-8.8-6.6c-4.9,0-8.9,1.7-12.2,3.9v-6.2
			c2.8-1.4,6.3-3.2,12.2-3.2c9.3,0,14.8,5.3,14.8,12c0,5.3-3.3,9.2-7.7,12.4l-7.8,5.8c-2.6,1.9-5.5,5-5.5,8.5h21.2v5.6H318
			C318,167.3,320.9,163.1,327.5,158.1z"/>
		<path class="st4" d="M364.3,139.6l-10.4,5.2V139l11-5.7h5.1v43.4h-5.7V139.6z"/>
	</g>
</g>
</svg>
